<svg xml:space="preserve" viewBox="61.575 60.062 676.85 679.875" height="679.875px" width="676.85px" y="0px" x="0px" id="Layer_1" version="1.1" xmlns:xlink="http://www.w3.org/1999/xlink" xmlns="http://www.w3.org/2000/svg"><g><path d="M250.994,632.646l10.185,6.034c42.777,25.387,91.824,38.816,141.843,38.84h0.104   c153.604,0,278.614-124.982,278.678-278.596c0.027-74.439-28.933-144.44-81.549-197.097   c-52.125-52.454-123.07-81.873-197.02-81.699c-153.723,0-278.736,124.968-278.791,278.573   c-0.076,52.452,14.694,103.854,42.604,148.264l6.631,10.536l-28.158,102.798L250.994,632.646z M65.016,739.938l47.571-173.688   c-29.338-50.83-44.773-108.495-44.755-167.572C67.909,213.863,218.311,63.507,403.131,63.507   c89.688,0.045,173.87,34.948,237.181,98.305c63.312,63.357,98.146,147.571,98.113,237.135   c-0.082,184.803-150.506,335.186-335.299,335.186h-0.146c-56.111-0.023-111.247-14.1-160.222-40.805L65.016,739.938z" fill="#B3B3B3"></path><path d="M61.575,736.493l47.571-173.688C79.757,511.854,64.32,454.054,64.391,395.233   C64.469,210.417,214.87,60.062,399.69,60.062c89.688,0.045,173.87,34.948,237.181,98.305   c63.312,63.357,98.146,147.571,98.113,237.136c-0.082,184.802-150.506,335.185-335.299,335.185h-0.146   c-56.111-0.023-111.247-14.1-160.222-40.804L61.575,736.493z" fill="#FFFFFF"></path><path d="M399.79,116.684c-153.723,0-278.736,124.968-278.791,278.573c-0.076,52.452,14.695,103.853,42.604,148.263   l6.63,10.536l-28.158,102.803l105.478-27.657l10.185,6.034c42.777,25.388,91.825,38.816,141.843,38.844h0.104   c153.604,0,278.618-124.981,278.678-278.595c0.234-73.954-29.131-144.927-81.549-197.097   C544.688,145.931,473.742,116.51,399.79,116.684L399.79,116.684z" fill="none"></path><linearGradient gradientTransform="matrix(4.5571 0 0 -4.5571 92.9897 3652.4204)" y2="664.0228" x2="67.6019" y1="768.5479" x1="66.9819" gradientUnits="userSpaceOnUse" id="SVGID_1_"><stop style="stop-color:#57D163" offset="0"></stop><stop style="stop-color:#23B33A" offset="1"></stop></linearGradient><path d="M399.79,116.684c-153.723,0-278.736,124.968-278.791,278.573   c-0.076,52.452,14.695,103.853,42.604,148.263l6.63,10.541l-28.158,102.798l105.478-27.657l10.185,6.034   c42.777,25.388,91.825,38.813,141.843,38.84h0.104c153.604,0,278.618-124.982,278.678-278.596   c0.234-73.954-29.131-144.928-81.549-197.097C544.688,145.928,473.741,116.508,399.79,116.684L399.79,116.684z" fill="url(#SVGID_1_)"></path><path d="M315.886,255.108c-6.279-13.949-12.887-14.231-18.853-14.473l-16.059-0.196   c-5.587,0-14.665,2.096-22.339,10.481c-7.674,8.385-29.325,28.65-29.325,69.869c0,41.218,30.022,81.047,34.205,86.643   c4.184,5.596,57.957,92.877,143.115,126.458c70.767,27.907,85.167,22.357,100.533,20.963s49.566-20.266,56.544-39.829   c6.977-19.563,6.981-36.324,4.89-39.828c-2.092-3.505-7.679-5.587-16.063-9.779c-8.386-4.192-49.567-24.458-57.246-27.256   s-13.261-4.188-18.853,4.196c-5.592,8.386-21.628,27.247-26.518,32.839c-4.89,5.591-9.771,6.293-18.155,2.105   c-8.385-4.188-35.362-13.038-67.371-41.579c-24.904-22.206-41.716-49.631-46.61-58.011c-4.894-8.38-0.519-12.919,3.683-17.093   c3.76-3.755,8.376-9.784,12.573-14.674c4.196-4.89,5.577-8.385,8.366-13.967s1.399-10.486-0.697-14.674   c-2.096-4.188-18.374-45.621-25.82-62.19" fill="#FFFFFF"></path></g></svg>